<?xml version="1.0" encoding="UTF-8"?>
<!DOCTYPE svg PUBLIC "-//W3C//DTD SVG 1.1//EN" "http://www.w3.org/Graphics/SVG/1.1/DTD/svg11.dtd">
<!-- Creator: CorelDRAW 2019 (64-Bit) -->
<svg xmlns="http://www.w3.org/2000/svg" xml:space="preserve" width="1934px" height="720px" version="1.1" style="shape-rendering:geometricPrecision; text-rendering:geometricPrecision; image-rendering:optimizeQuality; fill-rule:evenodd; clip-rule:evenodd"
viewBox="0 0 1934 719.95"
 xmlns:xlink="http://www.w3.org/1999/xlink"
 xmlns:xodm="http://www.corel.com/coreldraw/odm/2003">
 <defs>
  <style type="text/css">
   <![CDATA[
    .fil1 {fill:#EC6722}
    .fil0 {fill:#007697}
   ]]>
  </style>
 </defs>
 <g id="Layer_x0020_1">
  <metadata id="CorelCorpID_0Corel-Layer"/>
  <path class="fil0" d="M665.11 0c22.55,15.44 45.49,38.86 45.49,61.48l0 398.69c0,22.34 -21.06,53.93 -40.24,66.53 67.65,0 135.31,0 202.97,0 131.32,-5.43 210.97,-52.84 220.49,-152.24 6.68,-69.72 -30.16,-123.95 -120.66,-154.52 45.15,-17.18 69.43,-54.59 71.65,-106.2 3.81,-88.77 -99.5,-113.74 -164.48,-113.74l-215.22 0zm125.98 213.48l0 -166.23 62.28 0c70.67,0 103.96,34.67 103.95,86.93 -0.01,52.26 -47.79,79.3 -107.43,79.3l-58.8 0zm66.39 262.47l-66.39 0 0 -215.23 75.24 0c112.09,0 145.99,67.4 139.98,122.49 -6.01,55.09 -53.35,92.74 -148.83,92.74zm415.06 -475.95l-110.29 0c24.52,27.29 35.22,41.63 35.22,83.93l0 363.34c0,41.85 -18.55,67.53 -45.16,85.7l146.76 0c-21.79,-13.29 -45.25,-39.41 -45.25,-86.67l0 -320.98c74.14,99.04 148.27,198.07 222.41,297.11 42.04,54.99 90.77,101.61 147.59,138.12l0 -478.54c0,-47.92 19.33,-66.19 45.18,-82.01l-143.08 0c25.93,19.24 39.68,40.97 39.68,80.1l0 320.47 -293.06 -400.57zm477.67 532.97c29.68,-19.69 44.78,-42.8 44.78,-72.8l0 -380.58c0,-45 -12.99,-55.17 -38.46,-79.59l169.38 0c-29.23,16.46 -49.74,50.06 -49.74,79.59l0 379.53c0,29.12 17.23,55.8 40.6,73.85l-166.56 0z"/>
  <path class="fil1" d="M0 0l163.51 0c-8.54,14.66 -15.01,47.6 1.52,121.61 14.7,65.78 57.2,134.4 101.53,188.64l-55.71 45.74 -210.85 -264.93 0 -91.06zm238.77 0l287.85 0 0 69.75c-22.27,-13.01 -62.87,-25.58 -122.49,-1.73 -96.19,38.47 -104.43,151.15 -104.43,151.15 -53.21,-64.27 -88.22,-169.66 -60.93,-219.17zm287.85 162.27l0 207.61c-65.41,24.82 -157.15,-39.73 -180.2,-116.35 -33.41,-111.07 45.34,-151.16 101.68,-140.17 42.1,8.22 66.55,33.31 78.52,48.91zm0 241.69l0 122.67 -176.42 0 35.37 -29.03c-23.08,2.81 -68.41,-8.04 -90.49,-35.78l-62.1 -78.03 56.77 -46.61c34.89,38.46 68.11,66.09 86.9,74.38 40.22,17.74 85.53,26.31 149.97,-7.6zm-274.93 122.67l-192.72 0 120.08 -98.57c9.82,12.35 19.31,24.28 28.32,35.6 17.69,22.22 32.54,44.17 44.32,62.97zm-248.72 0l-2.97 0 0 -323.54c45.86,57.62 104.44,131.23 156.92,197.17l-153.95 126.37z"/>
  <path class="fil0" d="M1822.21 678.6l0 0 9.89 -1.45c0.58,3.78 2.04,6.7 4.66,9.02 2.62,2.04 6.12,3.21 10.77,3.21 4.37,0 7.87,-1.17 10.19,-2.92 2.04,-1.74 3.21,-4.07 3.21,-6.69 0,-2.04 -0.88,-3.79 -2.91,-5.24 -1.46,-0.88 -4.95,-2.04 -10.2,-3.2 -7.27,-2.04 -12.51,-3.5 -15.14,-4.96 -2.91,-1.45 -5.24,-3.2 -6.69,-5.53 -1.46,-2.33 -2.04,-4.95 -2.04,-7.86 0,-2.62 0.58,-5.24 1.75,-7.28 1.16,-2.33 2.91,-4.07 4.95,-5.53 1.45,-1.16 3.78,-2.33 6.4,-2.91 2.62,-0.87 5.53,-1.45 8.45,-1.45 4.66,0 8.73,0.87 12.22,2.03 3.49,1.46 6.12,3.21 7.87,5.53 1.45,2.33 2.61,5.25 3.49,9.03l-9.9 1.45c-0.58,-3.2 -1.75,-5.53 -3.78,-7.27 -2.04,-1.46 -5.24,-2.33 -9.03,-2.33 -4.66,0 -7.86,0.58 -9.9,2.04 -2.04,1.74 -2.91,3.49 -2.91,5.53 0,1.16 0.58,2.33 1.17,3.49 0.87,0.87 2.03,1.75 3.78,2.62 1.16,0.3 4.07,1.17 9.02,2.62 6.99,1.75 11.94,3.21 14.56,4.66 2.92,1.16 5.24,2.91 6.7,5.24 1.46,2.04 2.32,4.95 2.32,8.45 0,3.2 -0.86,6.4 -2.91,9.31 -1.74,2.91 -4.65,5.24 -8.44,6.99 -3.49,1.46 -7.57,2.33 -12.23,2.33 -7.86,0 -13.68,-1.75 -17.46,-4.95 -4.08,-3.2 -6.7,-7.86 -7.86,-13.98zm83.26 -16.59c6.7,-0.88 11.65,-2.04 15.14,-3.2 0,-1.46 0,-2.33 0,-2.63 0,-4.07 -0.87,-6.98 -2.91,-8.73 -2.33,-2.04 -6.11,-3.2 -11.35,-3.2 -0.3,0 -0.59,0 -0.88,0 -4.08,0 -7.28,0.87 -9.32,2.33 -2.32,1.74 -4.07,4.66 -4.95,8.73l-9.89 -1.16c0.87,-4.37 2.32,-7.57 4.36,-10.19 2.04,-2.62 4.95,-4.66 9.03,-5.83 3.2,-1.16 6.69,-2.03 10.77,-2.03 0.88,-0.29 1.75,-0.29 2.33,-0.29 5.24,0 9.32,0.87 12.23,2.03 3.2,1.17 5.53,2.63 6.99,4.37 1.45,1.75 2.61,4.08 3.19,6.7 0.3,1.74 0.59,4.94 0.59,9.32l0 13.1c0,9.31 0,15.43 0.58,17.76 0.29,2.32 1.16,4.94 2.62,6.98l-10.48 0c-1.16,-2.04 -1.74,-4.36 -2.04,-7.28 -3.78,3.21 -7.28,5.54 -10.77,6.7 -1.75,0.58 -3.49,1.17 -5.24,1.46 -1.75,0.28 -3.78,0.58 -5.82,0.58 -6.41,0 -11.36,-1.75 -14.85,-4.66 -3.49,-3.2 -5.24,-7.28 -5.24,-12.23 0,-2.91 0.87,-5.53 2.04,-7.86 1.45,-2.33 2.91,-4.37 5.24,-5.82 2.03,-1.46 4.36,-2.62 6.99,-3.2 2.03,-0.59 4.94,-1.17 9.02,-1.46 0.87,-0.29 1.75,-0.29 2.62,-0.29zm0 27.37c2.62,-0.29 4.95,-1.17 6.99,-2.33 2.91,-1.46 5.24,-3.79 6.69,-6.7 0.88,-2.33 1.46,-5.82 1.46,-10.19l0 -3.49c-3.49,1.45 -8.44,2.62 -15.14,3.49 -0.29,0 -0.87,0.29 -1.17,0.29 -4.07,0.58 -6.98,1.16 -8.73,2.04 -1.74,0.58 -2.91,1.75 -3.79,3.2 -1.16,1.46 -1.45,2.91 -1.45,4.66 0,2.62 0.87,4.95 2.91,6.7 2.04,1.74 4.95,2.62 9.03,2.62 1.17,0 2.03,0 3.2,-0.29zm-1902.29 6.69l0 0 0 -81.23 16.3 0 19.22 57.65c1.75,5.24 3.2,9.32 3.78,11.94 1.16,-2.91 2.62,-7.28 4.37,-13.1l19.51 -56.49 14.55 0 0 81.23 -10.48 0 0 -67.84 -23.58 67.84 -9.61 0 -23.58 -69 0 69 -10.48 0zm156.63 0l0 0 0 -81.23 10.19 0 0 81.23 -10.19 0zm-39.01 -34.94l16.59 0c-0.58,-4.95 -1.74,-8.73 -3.78,-11.35 -3.21,-3.78 -7.28,-5.53 -12.23,-5.53 -0.29,0 -0.29,0 -0.58,0 -4.37,0 -8.15,1.45 -11.07,4.37 -3.2,3.2 -4.94,7.27 -5.24,12.51l16.31 0zm0 28.25c0.29,0 0.58,0 0.87,0 3.79,0 6.7,-1.17 9.32,-2.92 2.62,-2.03 4.66,-4.94 6.4,-9.31l10.19 1.16c-1.75,6.12 -4.66,10.78 -9.02,14.27 -4.37,3.2 -10.19,4.95 -16.89,4.95 -0.29,0 -0.58,0 -0.87,0 -8.15,-0.3 -14.85,-2.91 -19.51,-8.15 -5.24,-5.25 -7.57,-12.52 -7.57,-22.13 0,-9.9 2.33,-17.76 7.57,-23 4.95,-5.53 11.65,-8.15 19.51,-8.44 0.29,0 0.29,0 0.29,0 7.86,0 14.26,2.91 19.22,8.15 5.24,5.24 7.56,12.81 7.56,22.71 0,0.58 0,1.45 0,2.62l-27.07 0 -16.89 0c0.29,6.4 2.33,11.35 5.53,14.84 3.21,3.21 6.99,4.96 11.36,5.25zm127.22 29.41l0 0 -1.16 -9.33c2.33,0.59 4.08,0.88 5.82,0.88 2.04,0 3.79,-0.29 5.24,-1.16 1.46,-0.59 2.33,-1.75 3.2,-3.21 0.88,-0.87 1.75,-3.2 3.21,-7.28 0,-0.58 0.29,-1.46 0.87,-2.33l-22.42 -59.1 10.77 0 12.23 34.07c1.75,4.36 3.2,9.02 4.37,13.68 1.16,-4.66 2.33,-9.03 4.08,-13.4l12.51 -34.35 9.9 0 -22.41 59.97c-2.33,6.41 -4.08,10.78 -5.54,13.4 -1.74,3.2 -3.78,5.53 -6.11,6.99 -2.33,1.75 -4.95,2.33 -8.15,2.33 -2.04,0 -4.08,-0.3 -6.41,-1.16zm-40.17 -56.78c6.69,-0.88 11.64,-2.04 15.14,-3.2 0,-1.46 0,-2.33 0,-2.63 0,-4.07 -0.88,-6.98 -2.91,-8.73 -2.63,-2.04 -6.41,-3.2 -11.36,-3.2 -0.29,0 -0.58,0 -0.87,0 -4.37,0 -7.28,0.87 -9.61,2.33 -2.04,1.74 -3.79,4.66 -4.95,8.73l-9.61 -1.16c0.88,-4.37 2.33,-7.57 4.37,-10.19 2.04,-2.62 4.95,-4.66 8.73,-5.83 3.21,-1.16 6.99,-2.03 11.07,-2.03 0.58,-0.29 1.45,-0.29 2.33,-0.29 4.94,0 9.02,0.87 12.23,2.03 3.2,1.17 5.52,2.63 6.98,4.37 1.46,1.75 2.62,4.08 3.21,6.7 0.28,1.74 0.28,4.94 0.28,9.32l0 13.1c0,9.31 0.3,15.43 0.88,17.76 0.29,2.32 1.17,4.94 2.33,6.98l-10.48 0c-0.88,-2.04 -1.46,-4.36 -1.75,-7.28 -3.78,3.21 -7.28,5.54 -10.77,6.7 -1.75,0.58 -3.5,1.17 -5.24,1.46 -2.04,0.28 -3.79,0.58 -5.83,0.58 -6.4,0 -11.35,-1.75 -14.84,-4.66 -3.5,-3.2 -5.24,-7.28 -5.24,-12.23 0,-2.91 0.58,-5.53 2.04,-7.86 1.16,-2.33 2.91,-4.37 4.94,-5.82 2.33,-1.46 4.66,-2.62 7.28,-3.2 2.04,-0.59 4.95,-1.17 9.03,-1.46 0.87,-0.29 1.74,-0.29 2.62,-0.29zm0 27.37c2.33,-0.29 4.66,-1.17 6.99,-2.33 2.91,-1.46 4.94,-3.79 6.4,-6.7 1.17,-2.33 1.75,-5.82 1.75,-10.19l0 -3.49c-3.5,1.45 -8.45,2.62 -15.14,3.49 -0.59,0 -0.88,0.29 -1.17,0.29 -4.07,0.58 -6.99,1.16 -8.73,2.04 -1.75,0.58 -3.2,1.75 -4.08,3.2 -0.87,1.46 -1.16,2.91 -1.16,4.66 0,2.62 0.87,4.95 2.91,6.7 2.04,1.74 4.95,2.62 8.73,2.62 1.17,0 2.33,0 3.5,-0.29zm281.53 6.69l0 0 0 -81.23 11.06 0 42.8 63.76 0 -63.76 10.19 0 0 81.23 -11.06 0 -42.51 -63.76 0 63.76 -10.48 0zm-57.94 0l0 0 0 -58.81 10.19 0 0 58.81 -10.19 0zm0 -69.58l0 0 0 -11.65 10.19 0 0 11.65 -10.19 0zm-63.18 69.58l0 0 0 -58.81 9.03 0 0 8.44c4.37,-6.4 10.77,-9.89 18.92,-9.89 3.5,0 6.7,0.87 9.61,2.03 2.91,1.17 5.24,2.91 6.7,4.95 1.45,2.04 2.62,4.66 3.2,7.57 0.29,1.75 0.58,4.95 0.58,9.61l0 36.1 -10.19 0 0 -35.81c0,-4.08 -0.29,-6.99 -1.17,-9.02 -0.58,-2.04 -2.03,-3.79 -4.07,-4.95 -2.03,-1.17 -4.07,-1.75 -6.99,-1.75 -4.07,0 -7.86,1.46 -10.77,4.08 -3.2,2.62 -4.66,7.86 -4.66,15.43l0 32.02 -10.19 0zm-40.46 -34.06c6.69,-0.88 11.64,-2.04 15.13,-3.2 0,-1.46 0,-2.33 0,-2.63 0,-4.07 -0.87,-6.98 -2.91,-8.73 -2.62,-2.04 -6.4,-3.2 -11.35,-3.2 -0.29,0 -0.59,0 -0.87,0 -4.37,0 -7.57,0.87 -9.61,2.33 -2.04,1.74 -3.79,4.66 -4.95,8.73l-9.61 -1.16c0.87,-4.37 2.33,-7.57 4.37,-10.19 2.04,-2.62 4.95,-4.66 8.73,-5.83 3.21,-1.16 6.99,-2.03 11.07,-2.03 0.58,-0.29 1.45,-0.29 2.33,-0.29 4.94,0 9.02,0.87 12.22,2.03 3.21,1.17 5.54,2.63 6.99,4.37 1.46,1.75 2.33,4.08 3.2,6.7 0.29,1.74 0.29,4.94 0.29,9.32l0 13.1c0,9.31 0.3,15.43 0.59,17.76 0.58,2.32 1.45,4.94 2.62,6.98l-10.48 0c-0.88,-2.04 -1.75,-4.36 -2.04,-7.28 -3.5,3.21 -6.99,5.54 -10.48,6.7 -1.75,0.58 -3.5,1.17 -5.24,1.46 -2.04,0.28 -3.79,0.58 -5.82,0.58 -6.41,0 -11.36,-1.75 -14.85,-4.66 -3.5,-3.2 -5.25,-7.28 -5.25,-12.23 0,-2.91 0.59,-5.53 2.04,-7.86 1.17,-2.33 2.91,-4.37 4.95,-5.82 2.33,-1.46 4.66,-2.62 7.28,-3.2 2.04,-0.59 4.95,-1.17 8.74,-1.46 1.16,-0.29 2.03,-0.29 2.91,-0.29zm0 27.37c2.33,-0.29 4.66,-1.17 6.69,-2.33 3.2,-1.46 5.24,-3.79 6.7,-6.7 1.16,-2.33 1.74,-5.82 1.74,-10.19l0 -3.49c-3.49,1.45 -8.73,2.62 -15.13,3.49 -0.58,0 -0.88,0.29 -1.17,0.29 -4.08,0.58 -6.99,1.16 -8.73,2.04 -1.75,0.58 -3.2,1.75 -4.08,3.2 -0.87,1.46 -1.45,2.91 -1.45,4.66 0,2.62 1.16,4.95 3.2,6.7 2.04,1.74 4.95,2.62 8.73,2.62 1.17,0 2.33,0 3.5,-0.29zm266.38 -28.25l16.6 0c-0.58,-4.95 -1.75,-8.73 -3.78,-11.35 -3.21,-3.78 -7.28,-5.53 -12.52,-5.53 0,0 0,0 -0.3,0 -4.36,0 -8.15,1.45 -11.06,4.37 -3.2,3.2 -4.95,7.27 -5.24,12.51l16.3 0zm0 28.25c0.3,0 0.59,0 0.88,0 3.78,0 6.7,-1.17 9.32,-2.92 2.62,-2.03 4.65,-4.94 6.11,-9.31l10.48 1.16c-1.75,6.12 -4.66,10.78 -9.03,14.27 -4.36,3.2 -10.18,4.95 -16.88,4.95 -0.29,0 -0.58,0 -0.88,0 -8.15,-0.3 -14.84,-2.91 -19.79,-8.15 -4.95,-5.25 -7.57,-12.52 -7.57,-22.13 0,-9.9 2.62,-17.76 7.86,-23 4.95,-5.53 11.65,-8.15 19.5,-8.44 0,0 0.3,0 0.3,0 7.86,0 14.27,2.91 19.21,8.15 4.95,5.24 7.57,12.81 7.57,22.71 0,0.58 0,1.45 0,2.62l-27.08 0 -16.88 0c0.29,6.4 2.04,11.35 5.53,14.84 2.92,3.21 6.99,4.96 11.35,5.25zm61.73 -1.46c4.66,0 8.44,-1.75 11.64,-5.24 3.21,-3.49 4.66,-9.03 4.66,-16.59 0,-7.28 -1.75,-12.82 -4.95,-16.31 -2.91,-3.78 -6.69,-5.53 -11.35,-5.53 -4.66,0 -8.15,1.75 -11.36,5.24 -3.2,3.78 -4.65,9.02 -4.65,16.3 0,7.57 1.45,13.11 4.65,16.89 2.91,3.49 6.7,5.24 11.36,5.24zm0 23.87c4.07,-0.29 7.28,-1.16 9.61,-2.91 2.61,-1.75 4.07,-4.36 5.24,-7.57 0.29,-2.04 0.58,-6.4 0.58,-12.8 -4.08,4.94 -9.32,7.27 -15.43,7.56 -0.29,0 -0.58,0 -0.88,0 -8.15,0 -14.26,-2.91 -18.92,-8.73 -4.36,-5.82 -6.41,-12.81 -6.41,-20.97 0,-5.53 0.88,-10.77 2.91,-15.43 2.05,-4.94 4.96,-8.44 8.74,-11.06 4.08,-2.62 8.44,-4.07 13.68,-4.07 0.3,0 0.59,0 0.88,0 6.7,0.29 11.94,3.2 16.3,8.44l0 -6.99 9.32 0 0 50.95c0,9.02 -0.88,15.72 -2.91,19.51 -1.75,3.78 -4.66,6.69 -8.74,9.02 -3.78,2.05 -8.44,3.21 -13.97,3.21 -0.29,0 -0.58,0 -1.17,0 -6.98,0 -12.52,-1.46 -16.88,-4.66 -4.37,-3.21 -6.41,-7.86 -6.41,-14.27l9.9 1.46c0.29,2.91 1.46,5.24 3.2,6.4 2.63,2.04 6.12,2.91 10.19,2.91 0.59,0 0.88,0 1.17,0zm230.87 -15.72l0 0 0 -81.23 10.77 0 0 40.47 40.18 -40.47 14.56 0 -34.07 32.9 35.52 48.33 -13.97 0 -29.12 -41.05 -13.1 13.1 0 27.95 -10.77 0zm-61.43 0l0 0 0 -11.35 11.35 0 0 11.35c0,4.37 -0.58,7.57 -2.33,10.2 -1.45,2.61 -3.78,4.65 -6.98,5.81l-2.62 -4.07c2.04,-0.88 3.49,-2.33 4.66,-4.08 0.87,-1.74 1.45,-4.37 1.45,-7.86l-5.53 0zm-27.66 0l0 0 0 -58.81 9.9 0 0 58.81 -9.9 0zm0 -69.58l0 0 0 -11.65 9.9 0 0 11.65 -9.9 0zm-38.14 69.58l0 0 0 -58.81 9.03 0 0 9.03c2.33,-4.37 4.36,-6.99 6.4,-8.45 1.75,-1.16 4.08,-2.03 6.41,-2.03 3.2,0 6.69,1.16 10.19,3.2l-3.5 9.31c-2.33,-1.45 -4.94,-2.03 -7.27,-2.03 -2.04,0 -4.08,0.58 -5.83,2.03 -1.74,1.17 -2.91,2.92 -3.78,5.25 -1.16,3.78 -1.75,7.56 -1.75,11.64l0 30.86 -9.9 0zm-39.01 -34.94l16.3 0c-0.29,-4.95 -1.45,-8.73 -3.49,-11.35 -3.2,-3.78 -7.57,-5.53 -12.52,-5.53 0,0 -0.29,0 -0.29,0 -4.37,0 -8.15,1.45 -11.35,4.37 -2.91,3.2 -4.66,7.27 -4.95,12.51l16.3 0zm0 28.25c0.29,0 0.58,0 0.87,0 3.5,0 6.7,-1.17 9.32,-2.92 2.62,-2.03 4.66,-4.94 6.11,-9.31l10.2 1.16c-1.46,6.12 -4.37,10.78 -9.03,14.27 -4.37,3.2 -9.9,4.95 -16.6,4.95 -0.29,0 -0.58,0 -0.87,0 -8.15,-0.3 -14.85,-2.91 -19.8,-8.15 -4.95,-5.25 -7.57,-12.52 -7.57,-22.13 0,-9.9 2.62,-17.76 7.87,-23 4.94,-5.53 11.35,-8.15 19.5,-8.44 0,0 0,0 0.29,0 7.86,0 14.27,2.91 19.22,8.15 4.95,5.24 7.57,12.81 7.57,22.71 0,0.58 0,1.45 -0.3,2.62l-26.78 0 -16.89 0c0.3,6.4 2.04,11.35 5.54,14.84 2.91,3.21 6.69,4.96 11.35,5.25zm264.64 -28.25l16.6 0c-0.58,-4.95 -1.75,-8.73 -3.79,-11.35 -3.2,-3.78 -7.27,-5.53 -12.51,-5.53 0,0 0,0 -0.3,0 -4.36,0 -8.15,1.45 -11.06,4.37 -3.2,3.2 -4.95,7.27 -5.24,12.51l16.3 0zm0 28.25c0.3,0 0.59,0 0.88,0 3.49,0 6.69,-1.17 9.31,-2.92 2.62,-2.03 4.66,-4.94 6.12,-9.31l10.48 1.16c-1.75,6.12 -4.66,10.78 -9.03,14.27 -4.65,3.2 -10.19,4.95 -16.88,4.95 -0.29,0 -0.58,0 -0.88,0 -8.15,-0.3 -14.84,-2.91 -19.5,-8.15 -4.95,-5.25 -7.57,-12.52 -7.57,-22.13 0,-9.9 2.62,-17.76 7.86,-23 4.66,-5.53 11.35,-8.15 19.21,-8.44 0,0 0.3,0 0.3,0 7.86,0 14.26,2.91 19.21,8.15 4.95,5.24 7.57,12.81 7.57,22.71 0,0.58 0,1.45 0,2.62l-27.08 0 -16.59 0c0,6.4 1.75,11.35 5.24,14.84 2.91,3.21 6.7,4.96 11.35,5.25zm64.06 -53.28c0.58,-0.29 0.87,-0.29 1.16,-0.29 3.78,0 6.99,0.87 10.48,2.32 3.2,1.46 5.82,3.5 7.86,6.12 2.04,2.62 3.79,5.82 4.95,9.6 1.16,3.79 1.75,7.87 1.75,11.94 0,10.19 -2.62,18.06 -7.57,23.3 -4.95,5.53 -11.07,8.44 -18.05,8.44 0,0 -0.29,0 -0.58,0 -6.41,-0.3 -11.65,-3.2 -15.73,-8.74l0 7.28 -9.02 0 0 -81.23 9.9 0 0 29.12c3.78,-4.95 9.02,-7.86 14.85,-7.86zm0 53.28c4.36,-0.29 8.15,-2.04 11.06,-5.83 3.2,-3.78 4.95,-9.31 4.95,-16.88 0,-7.57 -1.46,-13.4 -4.66,-16.89 -2.91,-3.78 -6.7,-5.53 -11.06,-5.53 0,0 0,0 -0.29,0 -4.08,0 -7.87,1.75 -11.07,5.53 -3.2,3.79 -4.66,9.32 -4.66,16.59 0,6.99 0.88,11.94 2.91,15.15 3.21,5.24 7.28,7.86 12.82,7.86zm101.6 6.69l0 0 0 -58.81 8.73 0 0 8.44c4.37,-6.4 10.78,-9.89 18.93,-9.89 3.49,0 6.7,0.87 9.61,2.03 3.2,1.17 5.24,2.91 6.7,4.95 1.45,2.04 2.61,4.66 3.2,7.57 0.29,1.75 0.58,4.95 0.58,9.61l0 36.1 -9.9 0 0 -35.81c0,-4.08 -0.58,-6.99 -1.17,-9.02 -0.87,-2.04 -2.32,-3.79 -4.36,-4.95 -1.75,-1.17 -4.08,-1.75 -6.99,-1.75 -4.08,0 -7.86,1.46 -10.77,4.08 -3.2,2.62 -4.66,7.86 -4.66,15.43l0 32.02 -9.9 0zm-40.76 -34.06c6.7,-0.88 11.65,-2.04 15.14,-3.2 0,-1.46 0,-2.33 0,-2.63 0,-4.07 -0.87,-6.98 -2.91,-8.73 -2.62,-2.04 -6.41,-3.2 -11.35,-3.2 -0.3,0 -0.58,0 -0.88,0 -4.36,0 -7.28,0.87 -9.61,2.33 -2.03,1.74 -3.78,4.66 -4.94,8.73l-9.61 -1.16c0.87,-4.37 2.33,-7.57 4.36,-10.19 2.04,-2.62 4.95,-4.66 8.74,-5.83 3.2,-1.16 6.99,-2.03 11.06,-2.03 0.58,-0.29 1.46,-0.29 2.33,-0.29 4.95,0 9.03,0.87 12.23,2.03 3.2,1.17 5.53,2.63 6.99,4.37 1.45,1.75 2.62,4.08 3.2,6.7 0.29,1.74 0.29,4.94 0.29,9.32l0 13.1c0,9.31 0.29,15.43 0.87,17.76 0.3,2.32 1.17,4.94 2.33,6.98l-10.48 0c-0.87,-2.04 -1.45,-4.36 -1.74,-7.28 -3.79,3.21 -7.29,5.54 -10.78,6.7 -1.74,0.58 -3.49,1.17 -5.24,1.46 -2.04,0.28 -3.78,0.58 -5.82,0.58 -6.4,0 -11.36,-1.75 -14.85,-4.66 -3.49,-3.2 -5.24,-7.28 -5.24,-12.23 0,-2.91 0.59,-5.53 2.04,-7.86 1.16,-2.33 2.91,-4.37 4.95,-5.82 2.33,-1.46 4.66,-2.62 7.28,-3.2 2.03,-0.59 4.95,-1.17 9.02,-1.46 0.88,-0.29 1.75,-0.29 2.62,-0.29zm0 27.37c2.33,-0.29 4.66,-1.17 6.7,-2.33 3.2,-1.46 5.24,-3.79 6.69,-6.7 1.17,-2.33 1.75,-5.82 1.75,-10.19l0 -3.49c-3.49,1.45 -8.73,2.62 -15.14,3.49 -0.58,0 -0.87,0.29 -1.16,0.29 -4.08,0.58 -6.99,1.16 -8.73,2.04 -1.75,0.58 -3.21,1.75 -4.08,3.2 -0.88,1.46 -1.16,2.91 -1.16,4.66 0,2.62 0.87,4.95 2.91,6.7 2.03,1.74 4.94,2.62 8.73,2.62 1.16,0 2.33,0 3.49,-0.29zm126.36 -1.46c4.65,0 8.44,-1.75 11.35,-5.24 3.21,-3.49 4.66,-9.03 4.66,-16.59 0,-7.28 -1.45,-12.82 -4.66,-16.31 -3.2,-3.78 -6.99,-5.53 -11.35,-5.53 0,0 0,0 -0.29,0 -4.37,0 -8.16,1.75 -11.36,5.24 -2.91,3.78 -4.66,9.02 -4.66,16.3 0,7.57 1.75,13.11 4.66,16.89 3.2,3.49 6.99,5.24 11.65,5.24zm0 23.87c4.07,-0.29 7.27,-1.16 9.6,-2.91 2.33,-1.75 4.08,-4.36 4.96,-7.57 0.58,-2.04 0.87,-6.4 0.87,-12.8 -4.37,4.94 -9.32,7.27 -15.43,7.56 -0.29,0 -0.59,0 -0.88,0 -8.15,0 -14.55,-2.91 -18.92,-8.73 -4.37,-5.82 -6.7,-12.81 -6.7,-20.97 0,-5.53 1.17,-10.77 3.21,-15.43 2.03,-4.94 4.94,-8.44 8.73,-11.06 3.78,-2.62 8.44,-4.07 13.68,-4.07 0.29,0 0.59,0 0.88,0 6.4,0.29 11.93,3.2 16.3,8.44l0 -6.99 9.32 0 0 50.95c0,9.02 -1.17,15.72 -2.91,19.51 -2.04,3.78 -4.95,6.69 -9.03,9.02 -3.78,2.05 -8.15,3.21 -13.68,3.21 -0.29,0 -0.88,0 -1.17,0 -6.99,0 -12.81,-1.46 -16.88,-4.66 -4.37,-3.21 -6.41,-7.86 -6.41,-14.27l9.61 1.46c0.58,2.91 1.74,5.24 3.49,6.4 2.62,2.04 5.83,2.91 10.19,2.91 0.29,0 0.88,0 1.17,0zm63.17 -23.87c4.66,0 8.44,-1.75 11.36,-5.24 3.2,-3.49 4.66,-9.03 4.66,-16.59 0,-7.28 -1.46,-12.82 -4.66,-16.31 -3.2,-3.78 -6.99,-5.53 -11.36,-5.53 0,0 -0.29,0 -0.29,0 -4.37,0 -8.15,1.75 -11.35,5.24 -2.92,3.78 -4.66,9.02 -4.66,16.3 0,7.57 1.74,13.11 4.66,16.89 3.2,3.49 6.98,5.24 11.64,5.24zm0 23.87c4.08,-0.29 7.28,-1.16 9.61,-2.91 2.33,-1.75 4.08,-4.36 4.95,-7.57 0.58,-2.04 0.87,-6.4 0.87,-12.8 -4.36,4.94 -9.32,7.27 -15.43,7.56 -0.29,0 -0.58,0 -0.87,0 -8.15,0 -14.56,-2.91 -18.92,-8.73 -4.37,-5.82 -6.7,-12.81 -6.7,-20.97 0,-5.53 1.16,-10.77 3.2,-15.43 2.04,-4.94 4.95,-8.44 8.73,-11.06 3.79,-2.62 8.45,-4.07 13.69,-4.07 0.29,0 0.58,0 0.87,0 6.41,0.29 11.94,3.2 16.31,8.44l0 -6.99 9.02 0 0 50.95c0,9.02 -0.87,15.72 -2.62,19.51 -2.04,3.78 -4.95,6.69 -9.02,9.02 -3.79,2.05 -8.44,3.21 -13.69,3.21 -0.29,0 -0.87,0 -1.16,0 -6.99,0 -12.81,-1.46 -16.89,-4.66 -4.36,-3.21 -6.69,-7.86 -6.4,-14.27l9.61 1.46c0.58,2.91 1.74,5.24 3.49,6.4 2.33,2.04 5.82,2.91 10.19,2.91 0.29,0 0.87,0 1.16,0zm62.89 -49.78c6.7,-0.88 11.93,-2.04 15.14,-3.2 0,-1.46 0,-2.33 0,-2.63 0,-4.07 -0.88,-6.98 -2.62,-8.73 -2.62,-2.04 -6.41,-3.2 -11.36,-3.2 -0.29,0 -0.87,0 -1.16,0 -4.08,0 -7.28,0.87 -9.32,2.33 -2.33,1.74 -3.78,4.66 -4.95,8.73l-9.9 -1.16c1.17,-4.37 2.63,-7.57 4.37,-10.19 2.04,-2.62 5.24,-4.66 9.03,-5.83 3.2,-1.16 6.69,-2.03 10.77,-2.03 0.87,-0.29 1.74,-0.29 2.62,-0.29 4.95,0 9.03,0.87 12.23,2.03 3.2,1.17 5.23,2.63 6.98,4.37 1.46,1.75 2.33,4.08 2.91,6.7 0.3,1.74 0.59,4.94 0.59,9.32l0 13.1c0,9.31 0.29,15.43 0.58,17.76 0.58,2.32 1.16,4.94 2.62,6.98l-10.48 0c-1.16,-2.04 -1.74,-4.36 -2.04,-7.28 -3.78,3.21 -7.28,5.54 -10.77,6.7 -1.45,0.58 -3.5,1.17 -5.24,1.46 -1.75,0.28 -3.78,0.58 -5.53,0.58 -6.7,0 -11.65,-1.75 -15.14,-4.66 -3.21,-3.2 -4.95,-7.28 -4.95,-12.23 0,-2.91 0.58,-5.53 1.74,-7.86 1.46,-2.33 3.21,-4.37 5.25,-5.82 2.03,-1.46 4.66,-2.62 7.27,-3.2 1.75,-0.59 4.95,-1.17 8.74,-1.46 0.87,-0.29 1.75,-0.29 2.62,-0.29zm0 27.37c2.62,-0.29 4.95,-1.17 6.99,-2.33 2.91,-1.46 5.24,-3.79 6.69,-6.7 0.88,-2.33 1.46,-5.82 1.46,-10.19l0 -3.49c-3.49,1.45 -8.44,2.62 -15.14,3.49 -0.29,0 -0.59,0.29 -1.17,0.29 -4.07,0.58 -6.98,1.16 -8.73,2.04 -1.46,0.58 -2.91,1.75 -3.79,3.2 -0.87,1.46 -1.45,2.91 -1.45,4.66 0,2.62 1.17,4.95 3.2,6.7 1.75,1.74 4.95,2.62 8.74,2.62 1.16,0 2.33,0 3.2,-0.29zm103.93 6.69l0 0 0 -58.81 9.03 0 0 8.44c4.37,-6.4 10.48,-9.89 18.64,-9.89 3.49,0 6.98,0.87 9.89,2.03 2.91,1.17 5.24,2.91 6.7,4.95 1.45,2.04 2.33,4.66 2.91,7.57 0.58,1.75 0.58,4.95 0.58,9.61l0 36.1 -9.9 0 0 -35.81c0,-4.08 -0.29,-6.99 -1.16,-9.02 -0.87,-2.04 -2.04,-3.79 -4.08,-4.95 -2.03,-1.17 -4.36,-1.75 -6.99,-1.75 -4.36,0 -7.86,1.46 -11.06,4.08 -3.2,2.62 -4.65,7.86 -4.65,15.43l0 32.02 -9.91 0zm-40.75 -34.06c6.69,-0.88 11.93,-2.04 15.14,-3.2 0,-1.46 0,-2.33 0,-2.63 0,-4.07 -0.88,-6.98 -2.63,-8.73 -2.61,-2.04 -6.4,-3.2 -11.35,-3.2 -0.58,0 -0.87,0 -1.16,0 -4.08,0 -7.28,0.87 -9.32,2.33 -2.33,1.74 -3.78,4.66 -4.95,8.73l-9.9 -1.16c0.88,-4.37 2.33,-7.57 4.37,-10.19 2.04,-2.62 5.24,-4.66 9.03,-5.83 3.19,-1.16 6.69,-2.03 10.77,-2.03 0.87,-0.29 1.74,-0.29 2.62,-0.29 4.95,0 9.02,0.87 12.22,2.03 2.91,1.17 5.24,2.63 6.7,4.37 1.75,1.75 2.62,4.08 3.2,6.7 0.29,1.74 0.59,4.94 0.59,9.32l0 13.1c0,9.31 0.28,15.43 0.58,17.76 0.29,2.32 1.16,4.94 2.62,6.98l-10.48 0c-1.17,-2.04 -1.75,-4.36 -2.04,-7.28 -3.78,3.21 -7.28,5.54 -10.77,6.7 -1.75,0.58 -3.5,1.17 -5.24,1.46 -1.75,0.28 -3.79,0.58 -5.53,0.58 -6.7,0 -11.65,-1.75 -15.15,-4.66 -3.49,-3.2 -5.24,-7.28 -5.24,-12.23 0,-2.91 0.88,-5.53 2.04,-7.86 1.46,-2.33 3.2,-4.37 5.24,-5.82 2.04,-1.46 4.37,-2.62 7.28,-3.2 1.75,-0.59 4.66,-1.17 8.74,-1.46 0.87,-0.29 1.74,-0.29 2.62,-0.29zm0 27.37c2.62,-0.29 4.94,-1.17 6.98,-2.33 2.92,-1.46 5.25,-3.79 6.7,-6.7 0.87,-2.33 1.46,-5.82 1.46,-10.19l0 -3.49c-3.5,1.45 -8.45,2.62 -15.14,3.49 -0.29,0 -0.59,0.29 -1.17,0.29 -4.08,0.58 -6.99,1.16 -8.73,2.04 -1.75,0.58 -2.92,1.75 -3.79,3.2 -0.87,1.46 -1.45,2.91 -1.45,4.66 0,2.62 1.16,4.95 2.91,6.7 2.04,1.74 4.95,2.62 9.02,2.62 1.17,0 2.04,0 3.21,-0.29zm165.07 -74.54l1.75 0c6.11,0 11.06,0.88 14.84,2.62 3.79,1.46 6.7,4.08 8.74,7.57 2.33,3.2 3.2,6.99 3.2,10.78 0,3.2 -0.87,6.69 -2.62,9.6 -2.04,3.21 -4.95,5.53 -8.73,7.57 4.95,1.46 8.73,3.79 11.35,7.28 2.63,3.5 4.08,7.57 4.08,12.23 0,3.78 -0.87,7.57 -2.33,10.77 -1.75,3.2 -3.79,5.83 -6.11,7.57 -2.33,1.75 -5.25,2.91 -8.74,4.08 -3.78,0.87 -8.15,1.16 -13.39,1.16l-2.04 0 -28.82 0 0 -81.23 28.82 0zm0 34.07c4.37,0 7.86,-0.29 9.9,-0.88 2.62,-0.87 4.66,-2.03 6.11,-4.07 1.46,-1.75 2.04,-4.08 2.04,-6.99 0,-2.62 -0.58,-5.24 -2.04,-7.28 -1.16,-2.04 -3.2,-3.2 -5.53,-4.08 -2.04,-0.58 -5.53,-1.16 -10.48,-1.16 -0.58,0 -1.17,0 -1.75,0l-16.3 0 0 24.46 17.47 0c0.29,0 0.29,0 0.58,0zm0 37.55l2.04 0c3.49,0 6.11,0 7.57,-0.29 2.33,-0.58 4.37,-1.16 6.11,-2.32 1.75,-0.88 2.92,-2.33 4.08,-4.37 1.16,-2.04 1.75,-4.37 1.75,-6.99 0,-2.91 -0.88,-5.53 -2.33,-7.86 -1.75,-2.33 -3.79,-3.79 -6.7,-4.66 -2.62,-0.87 -6.7,-1.46 -11.64,-1.46l-0.88 0 -18.05 0 0 27.95 18.05 0zm109.18 9.61l0 0 0 -58.81 9.02 0 0 8.44c4.37,-6.4 10.49,-9.89 18.64,-9.89 3.78,0 6.98,0.87 9.89,2.03 2.92,1.17 5.24,2.91 6.7,4.95 1.46,2.04 2.62,4.66 3.2,7.57 0.29,1.75 0.58,4.95 0.58,9.61l0 36.1 -10.18 0 0 -35.81c0,-4.08 -0.3,-6.99 -1.17,-9.02 -0.58,-2.04 -2.04,-3.79 -4.08,-4.95 -2.03,-1.17 -4.36,-1.75 -6.98,-1.75 -4.08,0 -7.86,1.46 -11.07,4.08 -2.91,2.62 -4.65,7.86 -4.65,15.43l0 32.02 -9.9 0zm-40.76 -34.06c6.69,-0.88 11.93,-2.04 15.14,-3.2 0.29,-1.46 0.29,-2.33 0.29,-2.63 0,-4.07 -1.17,-6.98 -2.91,-8.73 -2.62,-2.04 -6.41,-3.2 -11.35,-3.2 -0.3,0 -0.88,0 -1.17,0 -4.08,0 -7.28,0.87 -9.32,2.33 -2.33,1.74 -3.78,4.66 -4.95,8.73l-9.61 -1.16c0.88,-4.37 2.33,-7.57 4.37,-10.19 2.04,-2.62 4.95,-4.66 8.74,-5.83 3.2,-1.16 6.69,-2.03 10.77,-2.03 0.87,-0.29 1.75,-0.29 2.62,-0.29 4.95,0 9.02,0.87 12.23,2.03 3.2,1.17 5.53,2.63 6.99,4.37 1.45,1.75 2.32,4.08 2.91,6.7 0.28,1.74 0.58,4.94 0.58,9.32l0 13.1c0,9.31 0.29,15.43 0.58,17.76 0.58,2.32 1.45,4.94 2.62,6.98l-10.48 0c-0.87,-2.04 -1.75,-4.36 -2.04,-7.28 -3.49,3.21 -7.28,5.54 -10.48,6.7 -1.75,0.58 -3.5,1.17 -5.53,1.46 -1.75,0.28 -3.79,0.58 -5.53,0.58 -6.41,0 -11.36,-1.75 -14.85,-4.66 -3.5,-3.2 -5.24,-7.28 -5.24,-12.23 0,-2.91 0.58,-5.53 1.74,-7.86 1.46,-2.33 3.21,-4.37 5.24,-5.82 2.05,-1.46 4.66,-2.62 7.29,-3.2 1.74,-0.59 4.94,-1.17 8.73,-1.46 0.87,-0.29 1.74,-0.29 2.62,-0.29zm0 27.37c2.62,-0.29 4.94,-1.17 6.99,-2.33 2.91,-1.46 5.24,-3.79 6.69,-6.7 1.17,-2.33 1.46,-5.82 1.46,-10.19l0 -3.49c-3.21,1.45 -8.45,2.62 -15.14,3.49 -0.29,0 -0.58,0.29 -1.16,0.29 -4.08,0.58 -6.99,1.16 -8.45,2.04 -1.74,0.58 -3.2,1.75 -4.07,3.2 -0.88,1.46 -1.46,2.91 -1.46,4.66 0,2.62 1.16,4.95 3.2,6.7 1.75,1.74 4.95,2.62 8.74,2.62 1.16,0 2.32,0 3.2,-0.29zm126.64 -1.46c4.37,0 8.44,-1.75 11.36,-5.24 3.2,-3.49 4.66,-9.03 4.66,-16.59 0,-7.28 -1.46,-12.82 -4.66,-16.31 -3.2,-3.78 -6.99,-5.53 -11.36,-5.53 -0.29,0 -0.29,0 -0.29,0 -4.37,0 -8.15,1.75 -11.35,5.24 -3.21,3.78 -4.66,9.02 -4.66,16.3 0,7.57 1.45,13.11 4.66,16.89 3.2,3.49 6.98,5.24 11.64,5.24zm0 23.87c4.08,-0.29 6.99,-1.16 9.32,-2.91 2.62,-1.75 4.37,-4.36 5.24,-7.57 0.58,-2.04 0.58,-6.4 0.58,-12.8 -4.07,4.94 -9.02,7.27 -15.14,7.56 -0.29,0 -0.87,0 -1.16,0 -8.15,0 -14.27,-2.91 -18.63,-8.73 -4.37,-5.82 -6.7,-12.81 -6.7,-20.97 0,-5.53 0.87,-10.77 2.91,-15.43 2.04,-4.94 5.24,-8.44 9.02,-11.06 3.79,-2.62 8.45,-4.07 13.69,-4.07 0.29,0 0.58,0 0.87,0 6.41,0.29 11.94,3.2 16.31,8.44l0 -6.99 9.02 0 0 50.95c0,9.02 -0.87,15.72 -2.62,19.51 -2.04,3.78 -4.95,6.69 -9.02,9.02 -3.79,2.05 -8.45,3.21 -13.69,3.21 -0.58,0 -0.87,0 -1.16,0 -6.99,0 -12.81,-1.46 -17.18,-4.66 -4.36,-3.21 -6.4,-7.86 -6.11,-14.27l9.6 1.46c0.59,2.91 1.46,5.24 3.5,6.4 2.33,2.04 5.82,2.91 10.19,2.91 0.29,0 0.58,0 1.16,0z"/>
 </g>
</svg>
